<?xml version="1.0" encoding="UTF-8"?>
<svg id="_圖層_2" data-name="圖層 2" xmlns="http://www.w3.org/2000/svg" viewBox="0 0 1035.44 1089.31">
  <defs>
    <style>
      .cls-1 {
        fill: none;
        stroke: #fff;
        stroke-miterlimit: 10;
      }
    </style>
  </defs>
  <g id="_圖層_6" data-name="圖層 6">
    <g>
      <circle class="cls-1" cx="865.78" cy="169.67" r="169.17"/>
      <circle class="cls-1" cx="852.13" cy="184.37" r="165.88"/>
      <circle class="cls-1" cx="838.48" cy="199.08" r="162.67"/>
      <circle class="cls-1" cx="824.83" cy="213.78" r="159.53"/>
      <circle class="cls-1" cx="811.18" cy="228.49" r="156.46"/>
      <circle class="cls-1" cx="797.53" cy="243.19" r="153.48"/>
      <circle class="cls-1" cx="783.88" cy="257.9" r="150.59"/>
      <circle class="cls-1" cx="770.23" cy="272.6" r="147.78"/>
      <circle class="cls-1" cx="756.58" cy="287.31" r="145.08"/>
      <circle class="cls-1" cx="742.93" cy="302.02" r="142.48"/>
      <circle class="cls-1" cx="729.28" cy="316.72" r="139.98"/>
      <circle class="cls-1" cx="715.64" cy="331.43" r="137.61"/>
      <circle class="cls-1" cx="701.99" cy="346.13" r="135.35"/>
      <circle class="cls-1" cx="688.34" cy="360.84" r="133.22"/>
      <circle class="cls-1" cx="674.69" cy="375.54" r="131.22"/>
      <circle class="cls-1" cx="661.04" cy="390.25" r="129.36"/>
      <circle class="cls-1" cx="647.39" cy="404.95" r="127.65"/>
      <circle class="cls-1" cx="633.74" cy="419.66" r="126.09"/>
      <circle class="cls-1" cx="620.09" cy="434.36" r="124.69"/>
      <circle class="cls-1" cx="606.44" cy="449.07" r="123.44"/>
      <circle class="cls-1" cx="592.79" cy="463.78" r="122.37"/>
      <circle class="cls-1" cx="579.14" cy="478.48" r="121.47"/>
      <circle class="cls-1" cx="565.49" cy="493.19" r="120.74"/>
      <circle class="cls-1" cx="551.84" cy="507.89" r="120.19"/>
      <circle class="cls-1" cx="538.2" cy="522.6" r="119.83"/>
      <circle class="cls-1" cx="524.55" cy="537.3" r="119.64"/>
      <circle class="cls-1" cx="510.9" cy="552.01" r="119.64"/>
      <circle class="cls-1" cx="497.25" cy="566.71" r="119.83"/>
      <circle class="cls-1" cx="483.6" cy="581.42" r="120.19"/>
      <circle class="cls-1" cx="469.95" cy="596.12" r="120.74"/>
      <circle class="cls-1" cx="456.3" cy="610.83" r="121.47"/>
      <circle class="cls-1" cx="442.65" cy="625.54" r="122.37"/>
      <circle class="cls-1" cx="429" cy="640.24" r="123.44"/>
      <circle class="cls-1" cx="415.35" cy="654.95" r="124.69"/>
      <circle class="cls-1" cx="401.7" cy="669.65" r="126.09"/>
      <circle class="cls-1" cx="388.05" cy="684.36" r="127.65"/>
      <circle class="cls-1" cx="374.41" cy="699.06" r="129.36"/>
      <circle class="cls-1" cx="360.76" cy="713.77" r="131.22"/>
      <circle class="cls-1" cx="347.11" cy="728.47" r="133.22"/>
      <circle class="cls-1" cx="333.46" cy="743.18" r="135.35"/>
      <circle class="cls-1" cx="319.81" cy="757.88" r="137.61"/>
      <circle class="cls-1" cx="306.16" cy="772.59" r="139.98"/>
      <circle class="cls-1" cx="292.51" cy="787.3" r="142.48"/>
      <circle class="cls-1" cx="278.86" cy="802" r="145.08"/>
      <circle class="cls-1" cx="265.21" cy="816.71" r="147.78"/>
      <circle class="cls-1" cx="251.56" cy="831.41" r="150.59"/>
      <circle class="cls-1" cx="237.91" cy="846.12" r="153.48"/>
      <circle class="cls-1" cx="224.26" cy="860.82" r="156.46"/>
      <circle class="cls-1" cx="210.61" cy="875.53" r="159.53"/>
      <circle class="cls-1" cx="196.97" cy="890.23" r="162.67"/>
      <circle class="cls-1" cx="183.32" cy="904.94" r="165.88"/>
      <circle class="cls-1" cx="169.67" cy="919.64" r="169.17"/>
    </g>
  </g>
</svg>